<svg t="1771083448278" class="icon" viewBox="0 0 1024 1024" version="1.1" xmlns="http://www.w3.org/2000/svg" p-id="1735" width="200" height="200"><path d="M931.87328 936.99328c0 41.00352-198.2848 74.24-442.88 74.24s-442.88-33.23648-442.88-74.24c0-41.00096 198.2848-74.24 442.88-74.24s442.88 33.23904 442.88 74.24z" fill="#C8C8C8" p-id="1736"></path><path d="M428.1856 208.32256c31.10144-26.9696 62.77376-30.9248 83.27424-13.41184 19.61728 16.76032 21.20704 47.296 4.02176 71.66208l-0.832 1.15456c-43.38176 58.95424-79.84128 177.07776-92.08064 301.27104-12.25984 124.37504 0.26112 250.01472 50.19904 325.06624l2.14272 3.22048v3.86816c0 8.26112-4.3136 15.98208-9.03424 21.87776-5.0304 6.27712-11.9424 12.28032-20.0448 17.25952-16.17408 9.94304-38.54336 16.66048-62.69952 11.95008-48.7296-9.4976-95.1424-62.49728-115.7632-196.41088l-0.96256-6.4384c-18.432-127.06816 14.98624-255.85152 55.70048-355.12576 20.40576-49.75616 42.7776-92.42112 61.73696-124.18048 9.47712-15.87968 18.14272-29.10208 25.33376-39.17056 6.95808-9.74336 13.10976-17.3568 17.52576-21.29152l1.48224-1.30048z m66.64704 6.0544c-6.43584-5.49632-23.25248-9.84064-49.82272 13.24032l-1.27232 1.11616c-2.06592 1.8432-6.77888 7.33184-13.72672 17.05984-6.71744 9.40544-15.00416 22.0288-24.18432 37.41184-18.36544 30.76352-40.15104 72.2944-60.03456 120.77312-39.86176 97.20064-71.55712 221.056-54.05184 341.73952l0.94976 6.34368c20.29568 131.76064 63.81824 168.9088 95.33952 175.0528 16.60672 3.2384 32.50432-1.32096 44.40064-8.63232 5.93408-3.648 10.51392-7.76704 13.4656-11.45344 1.16992-1.4592 1.93536-2.66496 2.44224-3.5968-52.34432-82.98496-63.41376-213.49376-51.24608-336.94208 12.42368-126.04416 49.56416-249.55648 96.93952-313.93536l1.08032-1.53088c10.71104-15.77728 6.92224-30.49472-0.27904-36.6464z" fill="#000000" p-id="1737"></path><path d="M488.99328 259.87328c-86.92736 117.58336-141.4912 483.21792-40.96 633.6 0 30.46144-116.5952 114.24256-154.88-148.48-34.4192-236.19328 115.50208-486.8992 140.3264-508.92032 56.3968-50.03264 84.33664-15.18848 55.5136 23.80032z" fill="#DBDBDB" p-id="1738"></path><path d="M448.03328 298.27328c-79.20128 109.09184-106.95424 442.87488-15.36 582.4 0 28.2624-104.05888 90.59072-138.93888-153.16224-31.36-219.14112 116.32128-468.96384 138.93888-489.3952 51.38432-46.42048 41.62304 23.98464 15.36 60.15744z" fill="#FFFFFF" p-id="1739"></path><path d="M541.46304 119.7184c-30.1056-12.88448-71.33952-10.03008-105.58208 0.5376-17.67424 5.4528-34.4064 13.2224-47.73888 22.84032-13.11744 9.46176-24.25344 21.67552-28.24192 36.43136l-0.32256 1.24416c-3.19232 12.82304-1.86112 24.65792 6.37696 33.80224 7.4752 8.29952 18.71872 11.95264 28.64896 14.20032 10.15808 2.29888 22.61504 3.80928 33.9456 5.5808 11.10272 1.73312 22.05696 3.8272 32.27136 7.2448l2.03264 0.70144c19.39968 6.90688 35.47648 16.33024 54.02624 24.91136 16.97024 7.84896 35.52256 14.63552 55.51104 12.46208l1.94048-0.23552c20.5952-2.8288 34.5472-13.57312 40.32256-30.03904 5.31968-15.16288 2.83392-32.81152-2.87232-48.88576-5.82144-16.39168-15.616-32.95488-27.4176-47.0144-11.74784-13.99296-26.10688-26.24-41.47712-33.15712l-1.42336-0.62464z m-98.0352 24.9984c31.40352-9.6896 65.69472-10.96448 87.90528-1.48736l1.0496 0.45824c10.82368 4.86912 22.25408 14.21568 32.37376 26.27072 10.0608 11.98336 18.20928 25.92 22.8992 39.12192 4.80256 13.52448 5.39392 24.57344 2.8416 31.8464-2.09408 5.97248-6.96832 11.40736-19.65312 13.15072h0.00256c-13.02528 1.78944-26.48576-2.36032-43.22048-10.10176-15.7056-7.26528-35.47136-18.41664-56.18688-25.792l-2.46272-0.84992c-12.33664-4.12928-24.99584-6.47936-36.47488-8.27392-12.75136-1.99168-23.2064-3.20768-32.24832-5.25312-9.26976-2.0992-13.5168-4.41344-15.27808-6.36672-0.68608-0.76288-2.34752-2.77504-0.7296-9.76896l0.36864-1.46688c1.82016-6.73024 7.70816-14.55872 18.50112-22.34624 10.57792-7.6288 24.64256-14.30528 40.31232-19.14112z" fill="#000000" p-id="1740"></path><path d="M532.51328 143.39328c-46.90688-21.1072-140.10112 13.25568-149.76 40.96-9.66144 27.70688 46.81472 20.608 89.6 35.84 35.91936 12.7872 61.52192 42.5984 91.74528 38.44608 59.5968-8.18432 15.31904-94.13888-31.58528-115.24608z" fill="#DBDBDB" p-id="1741"></path><path d="M520.30464 143.71584c-40.92416-18.0224-131.4816 14.27712-135.71072 41.2416-4.22912 26.96704 38.98112 6.1952 76.29312 19.2384 31.32416 10.94912 53.632 27.5456 79.92576 24.1664 51.85024-6.65856 20.41856-66.62656-20.50816-84.6464z" fill="#FFFFFF" p-id="1742"></path><path d="M832.03328 267.93728c0-5.7728-2.24512-12.78208-6.57408-19.72992-4.29312-6.89152-10.05824-12.77952-15.78752-16.448-5.98272-3.83488-10.176-4.21888-12.25216-3.6864-1.1264 0.28672-4.13696 1.45664-6.65856 8.70912l-0.4992 1.53344c-24.57856 81.27488-90.1248 191.56992-156.64896 306.64192-66.0736 114.28864-133.64992 234.10432-167.69792 339.61216l-1.59744 5.01248c-1.05984 3.3792-1.50784 9.96096 0.30464 17.9456 1.76384 7.76704 5.44256 15.80032 11.37664 22.31552 10.95424 12.03456 32.80128 22.12096 75.19232 7.86176l1.58208-0.55296c16.36096-5.92896 33.37984-18.64448 50.74944-37.81888 17.8432-19.6992 35.40224-45.48608 52.39552-75.69664 33.98656-60.42112 64.95232-137.15456 91.16928-214.72 26.18624-77.4784 47.488-155.34336 62.23104-217.79968 7.37024-31.22688 13.08416-58.52416 16.9472-79.93088 3.9296-21.7728 5.76768-36.53888 5.76768-43.24864z m25.6 0c0 9.31328-2.28096 26.21184-6.17472 47.7952-3.96288 21.952-9.77664 49.70496-17.22624 81.26464-14.8992 63.11424-36.41088 141.76768-62.89152 220.11648-26.45248 78.26432-58.01472 156.67712-93.10976 219.072-17.5488 31.19872-36.1728 58.7392-55.73376 80.3328-18.8672 20.82816-39.232 36.82304-61.0304 44.71296l-2.11456 0.73728c-49.04704 16.50176-82.60608 6.72256-102.2848-14.88896-9.3824-10.30656-14.83264-22.54592-17.408-33.88416-2.52416-11.12064-2.52928-22.48448 0.23296-31.28064l1.64352-5.16352c35.0464-108.6208 104.14336-230.83776 169.91488-344.60672 67.41248-116.61056 130.82112-223.5776 154.30656-301.24032l0.41216-1.31072c4.38528-13.43232 12.68992-23.20384 24.91392-26.32704 11.74016-3.00032 23.39584 1.16992 32.39936 6.9376 9.25952 5.93152 17.62048 14.6944 23.70816 24.46848 6.05184 9.71264 10.44224 21.38368 10.44224 33.26464z" fill="#000000" p-id="1743"></path><path d="M788.51328 239.39328c-48.06656 158.94016-257.1264 431.06304-325.12 647.68-7.64416 24.35328 0.43776 93.52704 91.8784 62.76352 157.76512-53.07392 275.4816-619.47392 275.4816-683.56352 0-35.30496-28.49024-72.34816-42.24-26.88z" fill="#DBDBDB" p-id="1744"></path><path d="M773.15072 275.84c-42.44736 140.30592-227.76576 383.57504-287.81056 574.7968-6.75072 21.49888-34.86208 66.15296 45.89056 38.99648 139.32544-46.85056 273.92256-527.104 273.92256-583.68 0-31.16544-19.85792-70.25152-32.00256-30.11328z" fill="#FFFFFF" p-id="1745"></path><path d="M716.44928 461.91104c5.31968-4.19584 11.9808-5.59104 18.65728-3.712 5.89312 1.65888 10.78528 5.55776 14.73792 9.78432 7.95136 8.50176 15.95136 22.53312 24.04608 41.63584l0.83456 2.0352c8.64768 21.64992 17.24416 62.3616 20.82048 106.78272 3.64032 45.21984 2.26816 96.45312-10.74432 137.3824l-0.62976 1.94304c-33.81248 102.56128-104.82688 176.43264-176.97792 206.8224-36.10624 15.20896-73.2544 19.80672-106.28352 10.5728-32.88064-9.19552-60.35968-31.75424-77.77024-68.14976l-0.8192-1.74592c-12.64128-27.24864-0.23552-52.37248 19.2896-69.07136 19.39712-16.58624 47.89248-27.3024 75.8272-28.61824l2.78784-0.15616c58.34496-3.8016 106.05056-40.14848 138.49856-91.0976 32.49408-51.02592 48.59648-115.19744 44.23168-171.10016l-0.22272-2.65728c-1.73312-19.2256-1.69472-35.92192 0.04864-49.02912 0.8704-6.54336 2.2144-12.56448 4.18048-17.69984 1.8944-4.9536 4.79232-10.21696 9.48736-13.92128z m14.36416 23.21664c-1.00608 2.68288-1.96096 6.56384-2.65728 11.78112-1.41056 10.60864-1.55648 25.27488 0.07424 43.35616l0.24576 2.9312c4.8256 61.7088-12.82304 131.38176-48.15872 186.87232-35.38432 55.56224-89.59488 98.40384-158.3872 102.89152l-3.28704 0.18432c-22.87104 1.07776-45.76768 9.99424-60.39296 22.5024-14.49472 12.39808-18.74176 25.83808-12.70784 38.84288l1.37728 2.87488c14.44096 29.3248 35.98592 46.17472 60.88704 53.13792 26.07616 7.29088 57.18016 4.08064 89.45152-9.5104 64.60416-27.21024 130.84416-94.92224 162.60096-191.2448l0.55808-1.72032c11.52768-36.28544 13.14304-83.65568 9.61024-127.53408-3.48416-43.26144-11.78624-81.024-19.01568-99.19232l-0.69632-1.69472c-7.76192-18.32704-14.35648-28.98944-19.17184-34.1376-0.11008-0.12032-0.22272-0.2304-0.33024-0.34048z" fill="#000000" p-id="1746"></path><path d="M762.10176 514.61376c-31.71328-74.86208-45.5936-45.19424-38.86848 29.41952 10.72128 118.94784-69.71392 283.15648-199.68 289.28-50.80832 2.39616-110.53312 27.42272-89.62048 66.56256 60.18048 112.63744 262.59968 51.68128 328.16896-147.20256 25.63072-77.74208 16.30976-199.5648 0-238.05952z" fill="#DBDBDB" p-id="1747"></path><path d="M742.43328 542.75328c-28.74624-67.85536-25.29792-42.03264-19.20256 25.6 9.71776 107.81696-79.3088 256.84992-197.11488 262.4-46.0544 2.17088-85.19424 22.49216-71.4368 60.29056 38.15424 104.82944 223.20128 44.46464 282.63424-135.81056 23.232-70.46912 19.90144-177.58464 5.12-212.48z" fill="#FFFFFF" p-id="1748"></path><path d="M657.29792 251.08992c23.85408 22.91968 65.75616 39.93856 128.83456 47.296l5.8112 0.65536c29.52448 3.22816 65.98144 5.45024 97.7152-0.71936 33.45408-6.5024 65.14432-23.23968 74.64704-61.17632l0.43264-1.82272c8.73984-38.36928-11.25632-74.82112-39.42144-101.3888-27.92704-26.33728-66.40128-45.58848-102.34112-50.30656l-1.71008-0.21504c-36.47232-4.32896-76.61056 5.39648-109.76512 21.65248-32.73728 16.0512-61.55776 39.93088-72.44032 66.4704l-0.49664 1.2416c-10.20928 26.11968-5.64224 54.89152 18.73408 78.3104z m131.79904 21.86752c-60.74368-7.08352-96.0768-23.04512-114.06336-40.32768-17.0752-16.40448-19.20256-34.51136-12.28544-51.3792l0.73728-1.7024c8.064-17.6256 29.82144-37.05088 59.28704-51.49696 29.99552-14.70976 65.1392-22.81728 95.4752-19.21536l2.85952 0.37376c29.6576 4.28032 62.58944 20.6592 86.6432 43.34848 25.03168 23.61088 37.88544 51.37152 32.03072 77.0816l-0.27648 1.152c-6.00576 24.09984-25.67168 36.75136-54.73024 42.39872-27.80416 5.40672-61.00736 3.56608-89.94816 0.41216l-5.72928-0.64512z" fill="#000000" p-id="1749"></path><path d="M940.20352 229.4784c-13.39392 58.80832-96.00512 50.9696-151.69024 44.47488-113.64608-13.25056-141.1968-56.19712-124.89472-95.95392 16.78592-40.94208 93.65504-80.9472 154.97216-73.67168 61.31712 7.27808 135.00672 66.33984 121.6128 125.14816z" fill="#DBDBDB" p-id="1750"></path><path d="M910.2336 223.44448c-12.91776 54.66368-86.08256 52.76416-135.68256 47.66208-101.22752-10.41152-125.56544-53.72928-110.36416-90.8032 15.65184-38.17472 94.03136-77.20448 148.6464-71.47008 54.61504 5.73696 110.31552 59.95008 97.40032 114.6112z" fill="#FFFFFF" p-id="1751"></path><path d="M638.66368 547.11296c18.4832 10.79296 49.55904 16.12032 96.09472 16.12032l2.25024 0.02816c11.32288 0.26368 23.52896 2.47552 36.12416 5.42464 6.68416 1.56672 13.27872 3.2896 19.85536 4.99456 6.5024 1.68192 13.01248 3.3536 19.19488 4.70016 11.77344 2.56256 24.75264 4.5696 35.65568 1.83552 5.87776-1.472 11.59936-4.41856 16.06912-9.6384 4.41088-5.14816 6.75584-11.52512 7.68768-18.42944 1.94304-14.36928-3.21024-28.87168-10.90048-41.60256-7.81056-12.928-19.06432-25.42336-31.68512-36.36992-24.42752-21.18144-56.68608-38.82752-83.72736-41.30048l-1.28256-0.10752c-26.22464-1.94304-53.98528 5.37856-76.3648 16.8192-21.43488 10.95424-40.98048 27.3024-47.63648 46.1824l-0.3072 0.90112c-2.84928 8.6528-3.9424 18.21952-0.82688 27.6224 3.17696 9.58976 10.11712 17.1648 19.79904 22.81984z m5.66784-43.34336c3.61472-9.472 15.82336-21.61152 34.95424-31.38816 19.14624-9.78688 42.23488-15.61088 62.8224-14.08512l1.85344 0.17408c19.39456 2.15552 46.18496 15.88992 68.2752 35.0464 11.18464 9.69984 20.46976 20.20864 26.5472 30.26688 6.1952 10.25536 8.28416 18.72384 7.44448 24.93696-0.45824 3.38688-1.35424 4.73088-1.76384 5.20704-0.35072 0.41216-1.02912 1.00096-2.84928 1.4592-4.49792 1.1264-12.12928 0.56064-23.98208-2.0224-5.62944-1.22624-11.6864-2.77248-18.2272-4.4672-6.46912-1.67424-13.39392-3.48672-20.43392-5.13536-13.14048-3.07968-27.38432-5.77024-41.41312-6.09536l-2.80064-0.03072c-46.06208-0.00256-71.05536-5.54752-83.18464-12.62848-5.62176-3.28448-7.62368-6.39744-8.40704-8.76544-0.84736-2.55232-0.9216-6.21056 0.84224-11.56608l0.32256-0.90624z" fill="#000000" p-id="1752"></path><path d="M847.39328 546.59328c-3.80416 28.16-67.83744-7.68-113.92-7.68-79.37792 0-97.40544-13.0432-89.4976-37.06112 8.14336-24.73216 55.76704-47.83104 95.8976-44.85888 40.13056 2.97472 111.32416 61.44 107.52 89.6z" fill="#DBDBDB" p-id="1753"></path><path d="M820.51328 529.95328c-3.92192 18.19136-49.344 4.2496-90.88512 3.84-71.552-0.70656-92.672-9.71776-85.75488-30.72 7.11936-21.62688 61.07904-47.76448 97.28-44.8 36.20096 2.96704 83.27936 53.4912 79.36 71.68z" fill="#FFFFFF" p-id="1754"></path><path d="M208.70656 204.61312c11.45344-1.78176 22.32832 1.24928 29.66272 10.15296 6.71744 8.1536 8.68608 19.136 8.19712 29.82912-0.46848 10.27584-3.2384 21.77536-8.04864 33.72544l-0.99072 2.3936c-15.25248 36.06016-16.44032 83.2896-6.90176 137.4848 9.50272 53.96992 29.39136 113.44128 54.70464 173.00736 50.62144 119.12192 122.21184 236.94336 172.66432 308.92288l0.4608 0.68096c4.6208 7.07328 4.75392 15.12448 1.94304 22.14144-2.69056 6.71488-7.89504 12.28544-13.75232 16.62464-11.84256 8.77824-29.67296 15.0528-50.46528 16.37632-41.62304 2.64704-96.51712-14.34368-146.50624-73.59232l-2.37568-2.85184c-82.81344-100.7104-130.2272-242.28352-143.0912-368.93184-6.44096-63.41632-4.288-123.72736 6.77376-173.87776 10.9824-49.79456 31.17568-91.43296 62.45376-114.98496l2.33984-1.73056c11.67104-8.43776 22.73792-13.78304 32.93184-15.37024z m9.9072 26.42944c-0.45568-0.55296-1.55136-1.82272-5.96992-1.13408-4.69248 0.7296-11.9424 3.65568-21.80352 10.77504l-2.00704 1.47968c-24.19968 18.22208-42.43968 52.83072-52.85376 100.04992-10.33472 46.86592-12.54144 104.34304-6.30272 165.7728 12.49536 123.0464 58.58304 259.4176 137.3952 355.26144l2.15296 2.58816c45.25568 53.65504 92.55168 66.65472 125.32992 64.57088 16.99584-1.08288 29.79072-6.16704 36.84608-11.39712 3.02592-2.24 4.4288-4.0832 4.99456-5.09952-51.16672-73.12896-123.3536-192.03072-174.62784-312.68864-25.7408-60.57728-46.39488-122.01472-56.35328-178.5856-9.91744-56.34816-9.4848-109.28896 8.5376-151.89248l0.82688-2.00704c3.99872-9.9456 5.90848-18.56768 6.21568-25.3056 0.34048-7.45216-1.3056-11.0848-2.3808-12.38784z" fill="#000000" p-id="1755"></path><path d="M213.79328 289.31328c-64.5632 152.63232 121.54112 476.25984 220.16 616.96 17.64864 25.18272-68.91776 74.19904-162.56-39.68-156.8-190.68416-195.06944-543.16544-87.43168-624.2176 45.45024-34.22208 49.20064 1.14944 29.83168 46.9376z" fill="#DBDBDB" p-id="1756"></path><path d="M202.88512 304.00768c-61.24032 144.70144 97.74848 454.9504 191.28064 588.3392 16.73984 23.872-68.54912 63.01184-147.09248-52.6336-119.4496-175.872-172.928-506.92864-70.8352-583.77216 43.10528-32.448 45.0176 4.65408 26.64704 48.06656z" fill="#FFFFFF" p-id="1757"></path><path d="M71.04768 219.776C86.2976 253.2096 121.2416 285.7728 181.888 310.272l2.9184 1.14688c30.47168 11.65824 70.3488 17.09056 106.26048 13.89056 35.57632-3.17184 72.14336-15.35488 88.44032-43.98592l0.75776-1.37728c19.54816-36.42368 3.36384-77.88288-21.49888-110.44864-24.55552-32.16384-60.73344-60.21376-93.81376-74.4704l-3.19232-1.33376c-34.28352-13.93152-71.4752-15.65952-104.10496-8.76032-31.91552 6.74816-60.8128 22.06976-78.27968 44.01408l-0.82432 1.0496c-17.60768 22.8096-22.83008 56.17664-7.5008 89.7792z m28.98432-75.6608C112.896 128.4608 135.47264 115.79136 162.95168 109.98016c28.15744-5.95456 60.096-4.38528 89.17248 7.42912l2.77248 1.16224c28.78208 12.41856 61.48608 37.60128 83.52256 66.46016 23.232 30.42816 31.38816 60.27008 19.29216 82.81088l-0.45568 0.81664c-9.75616 17.08544-34.70848 28.14208-68.46208 31.15008-32.31744 2.88-68.2368-2.13248-94.77888-12.2752l-2.53952-0.9984c-56.84992-22.9632-85.4784-51.8272-97.13664-77.38368-11.57888-25.38752-7.04768-48.58112 4.48-63.51104l1.21344-1.52576z" fill="#000000" p-id="1758"></path><path d="M358.8608 269.23008c-23.50848 43.80416-115.82464 44.35712-169.28768 22.76096-109.11232-44.07552-118.0544-114.0736-91.00032-149.12 27.86048-36.08576 97.408-53.87008 156.24192-29.96224 58.83648 23.90784 133.43232 101.568 104.04608 156.32128z" fill="#DBDBDB" p-id="1759"></path><path d="M325.85728 251.3152c-25.63072 46.92992-106.90048 45.9392-160.17152 19.70688C86.00064 231.7824 70.44096 181.69344 99.57632 143.95648c30.0032-38.86336 104.52736-44.78464 152.44544-25.99424 47.91552 18.7904 105.87392 74.69312 73.83552 133.35552z" fill="#FFFFFF" p-id="1760"></path><path d="M642.85696 408.65792a12.8 12.8 0 1 1 22.51008 12.19328c-28.992 53.52192-81.4464 80.83712-133.18656 93.29152-50.10944 12.06016-101.30176 10.6624-134.64064 4.64896l-3.16928-0.59648-0.64256-0.14336a12.8 12.8 0 0 1-9.45408-14.88128 12.8 12.8 0 0 1 14.37184-10.20928l0.65024 0.11264 2.86208 0.5376c30.14912 5.42976 77.71136 6.79168 124.032-4.35712 47.80032-11.50464 92.41088-35.81696 116.66688-80.59648z" fill="#000000" p-id="1761"></path><path d="M628.51328 432.67328c-62.72 70.4-161.80224 74.496-231.12448 65.45664-3.85024-20.71552 10.52672-68.47744 98.84672-93.78816 88.32-25.31072 118.58432 11.00544 132.27776 28.33152z" fill="#A7A7A7" p-id="1762"></path><path d="M475.3152 449.33376a3.84256 3.84256 0 0 1 3.4176 4.224c-0.87808 8.33536-3.35104 21.30944-5.9648 32.768a315.42528 315.42528 0 0 1-3.904 15.52128 105.0368 105.0368 0 0 1-1.76384 5.6704c-0.52224 1.49248-1.09056 2.92608-1.69472 3.93216a3.84 3.84 0 0 1-6.58432-3.95008c0.16384-0.27392 0.51712-1.05472 1.02912-2.51648 0.48384-1.3824 1.03168-3.15392 1.6256-5.24032 1.18528-4.16768 2.51392-9.45664 3.80416-15.12192 2.59328-11.3664 4.98432-23.99232 5.81376-31.86944a3.84 3.84 0 0 1 4.22144-3.4176z m-13.03808 2.70848a3.84 3.84 0 0 1 7.34976 2.22464c-2.21696 7.31648-7.11424 19.24096-12.72576 30.34624-2.81344 5.568-5.84704 11.00544-8.85504 15.60576-2.9568 4.52096-6.08 8.52992-9.13408 10.97216a3.84 3.84 0 1 1-4.8-5.99552c2.06848-1.6512 4.65152-4.8128 7.50848-9.1776 2.8032-4.288 5.69344-9.46176 8.42496-14.86848 5.48096-10.84672 10.18368-22.34368 12.23168-29.1072z m92.2496-31.40096a3.84 3.84 0 0 1 5.12512 0.46848l0.25344 0.29952 2.02752 2.6496c5.05344 6.48448 12.2496 14.95552 19.45856 22.62528 4.11392 4.38016 8.19456 8.45568 11.84768 11.73248 3.72224 3.3408 6.76096 5.62688 8.832 6.66368a3.84 3.84 0 0 1-3.07456 7.0272l-0.36096-0.15872-0.58112-0.30208c-2.9312-1.5872-6.3872-4.32128-9.9456-7.51616-3.86816-3.4688-8.11008-7.71328-12.3136-12.1856-7.35232-7.82592-14.71488-16.48128-19.93472-23.18336l-2.0992-2.74176-0.22016-0.32768a3.84256 3.84256 0 0 1 0.9856-5.05088z m9.16224 1.25952a3.83744 3.83744 0 0 1 4.84096-1.73824l0.35584 0.1664 5.07904 2.72896c12.57216 6.72768 32.47616 16.95744 51.78368 20.79488l2.14272 0.39936 0.384 0.08448a3.84 3.84 0 0 1-1.31072 7.5264l-0.38912-0.04608-2.28096-0.42496c-20.5312-4.07552-41.42592-14.84288-54.01344-21.5936l-5.02016-2.69824-0.33792-0.20224a3.84256 3.84256 0 0 1-1.23392-4.99712z" fill="#000000" p-id="1763"></path><path d="M498.9696 371.5584c13.32224-0.23552 26.90048 6.09024 38.55104 16.61952 11.79392 10.65728 22.36416 26.2272 30.00064 46.35648l0.7168 1.93792c7.4368 20.65152 16.01536 60.5568 21.95968 109.04576 6.17216 50.35008 9.63072 111.00416 5.80864 170.85184-3.81184 59.68128-14.91712 119.49056-38.5024 167.54432-23.68 48.24064-60.45184 85.4784-115.33568 97.50016-63.34208 17.75104-113.07008-5.32224-135.36-35.92448-10.86976-14.9248-16.41984-33.728-9.49504-50.21184 7.19616-17.13152 25.16992-25.83552 48.45568-26.112 16.00768-2.73152 34.81344-16.91392 53.78816-43.47648 18.88768-26.43712 36.33152-62.9248 49.88928-105.152 26.73408-83.26656 37.5808-186.32448 16.63488-274.17088l-1.024-4.1728c-4.89472-19.47648-4.53376-36.38528 1.45408-49.21344 6.32576-13.5552 18.40128-21.17632 32.45824-21.42208z m0.45056 25.59488c-4.19328 0.07168-7.488 1.88928-9.71264 6.65344-2.56256 5.4912-3.93472 15.7824 0.1792 32.14592l1.088 4.44416c22.31552 93.54496 10.60608 201.5104-17.15456 287.96672-14.12096 43.9808-32.59648 83.04384-53.42976 112.20736-20.44928 28.62336-44.87424 50.05824-71.58784 54.04416l-0.93696 0.1408h-0.94976c-18.39872 0-24.27392 6.32832-25.99936 10.43712-2.11712 5.03552-1.42592 14.22848 6.58432 25.22368 15.424 21.17632 53.85472 41.5872 108.09088 26.26048l0.384-0.11008 0.38656-0.08192c45.38112-9.82784 76.81536-40.36352 98.16064-83.85024 21.49376-43.78624 32.22528-99.81952 35.93472-157.89824 3.6992-57.91232 0.3584-116.93568-5.6704-166.10304-5.87264-47.9232-14.17984-85.50912-20.59008-103.35488l-0.61184-1.664c-6.44352-16.99072-14.9248-28.94336-23.22688-36.44416-8.44544-7.63136-16.00512-10.10432-20.93824-10.01728z" fill="#000000" p-id="1764"></path><path d="M481.31328 439.07328c46.08 183.296-34.56 432.64-120.32 445.44-84.48 0-39.68 104.96 78.08 71.68 189.44-39.68 134.4-442.88 106.24-517.12s-82.01984-71.68-64 0z" fill="#DBDBDB" p-id="1765"></path><path d="M485.15328 464.81664c42.048 167.68-38.4 424.81664-138.24 424.81664-55.04 8.23552-26.88 70.03904 71.68 48.64 183.38304-39.81056 139.61728-405.5424 113.92-473.45664-25.69728-67.9168-63.80544-65.5744-47.36 0z" fill="#FFFFFF" p-id="1766"></path><path d="M446.67904 292.33408c76.66176-37.21984 147.35872-0.9984 186.52928 40.86272 19.53536 20.8768 33.2032 45.13792 35.13088 65.09056 0.9856 10.18112-0.9728 21.50656-9.75616 29.39136-8.37632 7.51872-19.95776 9.18016-32.064 7.58016l-1.17248-0.1664c-59.53024-8.86528-98.16832-7.50848-127.54688 3.48928-28.94848 10.83648-50.7776 31.75424-75.10272 66.688l-0.41728 0.59904-0.48128 0.54784c-6.69696 7.60064-15.6544 13.02528-26.18112 11.75808-10.00704-1.20576-17.32352-8.02816-22.17728-15.09632-9.74336-14.18752-15.15776-37.07136-15.32672-61.68064-0.34304-49.74848 20.86144-115.2256 86.75328-148.1728l1.81248-0.89088z m167.83616 58.3552c-34.52672-36.89728-92.89984-65.38752-155.23072-36.01152l-2.9696 1.4464c-54.4256 27.2128-72.90368 81.62304-72.60416 125.09952 0.15104 22.0032 5.13536 39.06816 10.83136 47.36 2.18368 3.17696 3.67104 3.96288 4.08064 4.13696 0.46848-0.1408 1.64864-0.71168 3.55584-2.78016 25.42592-36.37504 50.86208-61.9392 86.6432-75.33568 35.58144-13.31968 79.50592-13.88544 140.29312-4.83072l1.6 0.21248c7.6544 0.87552 10.23232-0.88064 10.7648-1.3568 0.42752-0.384 1.93792-2.11456 1.37984-7.87712-1.152-11.92704-10.60352-31.104-28.34432-50.06336z" fill="#000000" p-id="1767"></path><path d="M618.27328 412.19328c-107.04384-15.936-160.39168 1.53088-204.8 65.28-36.44416 41.35424-63.03232-108.51072 44.01152-162.01472 125.26592-62.61504 237.06368 108.09344 160.78848 96.73472z" fill="#DBDBDB" p-id="1768"></path><path d="M588.83328 390.43328c-102.68416-7.3344-131.91168 31.83104-174.07744 97.28-34.60352 42.4576-57.25184-107.98336 25.59744-162.56 92.68992-61.056 202.24 69.12256 148.48 65.28z" fill="#FFFFFF" p-id="1769"></path></svg>